<svg width="231" height="221" viewBox="0 0 231 221" fill="none" xmlns="http://www.w3.org/2000/svg">
<path d="M218.062 90.2069C249.998 39.0066 132.814 21.1415 124.937 19.3881C117.061 17.6348 88.6977 13.9091 81.9337 30.3681C74.5338 48.3745 80.5409 101.613 31.1494 119.24C-18.2421 136.867 26.6001 165.981 50.8853 183.769C83.7935 202.666 137.168 208.153 168.367 190.435C186.781 179.977 194.852 175.321 201.368 165.201C212.49 138.446 191.867 132.203 218.062 90.2069Z" fill="url(#paint0_linear)"/>
<path d="M137.862 92.6833C136.621 89.6017 134.71 86.8952 130.889 84.6174C128.914 83.4115 126.792 82.5098 124.586 81.9379C126.07 81.1928 127.436 80.1981 128.631 78.99C130.388 77.2944 131.719 75.1466 132.502 72.7465C133.222 70.3076 133.517 67.745 133.37 65.1896C133.097 60.6878 132.279 56.32 130.095 53.1847C127.911 50.0494 124.834 47.638 120.765 45.9496C117.638 44.6634 114.437 43.8596 109.474 43.5649V26.4415L99.5483 33.1408V43.5915H91.6079V32.6047L81.4338 26.4415V43.5915H59.8206L66.7686 56.454C68.915 56.4567 70.3693 56.6711 71.1112 57.0705C71.8038 57.3905 72.3732 57.9582 72.7239 58.6781C73.0466 59.3478 73.1954 60.9292 73.1954 63.3677V109.78C73.1954 112.191 73.0466 113.746 72.7239 114.442C72.4016 115.139 72.2277 115.755 71.4586 116.13C70.6895 116.506 70.6644 116.479 68.5305 116.479H68.5058L59.8206 129.341H81.4091V146.491H91.5828V129.341H99.5236V146.491H109.449V129.234C115.901 128.886 120.492 127.975 124.189 126.474C128.978 124.545 132.651 121.731 135.281 118.033C137.911 114.335 138.978 108.681 139.202 104.313C139.375 100.427 138.978 95.4165 137.862 92.6833ZM91.5828 58.062H91.5853V57.7055H98.5233C102.427 57.7055 115.434 56.3014 115.651 67.773C115.869 79.2445 98.5233 78.7756 98.5233 78.7756H91.5853V77.8915H91.5828V58.062ZM91.5828 90.7539H99.5236C101.137 90.7539 106.685 91.0193 108.705 91.1186C109.528 91.1506 110.344 91.3077 111.127 91.5848C111.412 91.6891 111.682 91.8069 111.975 91.9382C113.199 92.3656 114.354 92.9965 115.397 93.8089C116.078 94.294 116.676 94.9011 117.167 95.6042C117.379 95.9215 117.575 96.2514 117.752 96.593C118.222 97.4514 118.571 98.3807 118.787 99.3501C119.023 100.287 119.146 101.252 119.152 102.223C119.152 104.311 118.794 106.039 117.914 107.502C116.72 109.662 114.762 111.192 112.559 112.272C106.861 115.069 99.5236 114.871 99.5236 114.871H91.5828V90.7539Z" fill="#FF9900" fill-opacity="0.31"/>
<path d="M133.481 92.6836C132.24 89.602 130.33 86.8955 126.508 84.6177C124.533 83.4118 122.412 82.5101 120.206 81.9382C121.69 81.1931 123.055 80.1984 124.25 78.9903C126.007 77.2947 127.338 75.1469 128.121 72.7468C128.842 70.3079 129.136 67.7453 128.99 65.1899C128.717 60.6881 127.898 56.3203 125.714 53.185C123.531 50.0497 120.453 47.6383 116.384 45.9499C113.258 44.6637 110.056 43.8599 105.094 43.5652V26.4418L95.1677 33.1412V43.5918H87.2273V32.605L77.0532 26.4418V43.5918H55.44L62.388 56.4543C64.5345 56.457 65.9887 56.6714 66.7307 57.0708C67.4233 57.3908 67.9926 57.9585 68.3433 58.6784C68.666 59.3481 68.8148 60.9295 68.8148 63.368V109.78C68.8148 112.192 68.666 113.746 68.3433 114.442C68.021 115.139 67.8471 115.756 67.078 116.131C66.3089 116.506 66.2838 116.479 64.1499 116.479H64.1253L55.44 129.342H77.0285V146.492H87.2022V129.342H95.143V146.492H105.069V129.235C111.52 128.886 116.111 127.975 119.808 126.474C124.597 124.545 128.27 121.732 130.9 118.034C133.531 114.335 134.598 108.681 134.821 104.314C134.995 100.428 134.598 95.4168 133.481 92.6836ZM87.2022 58.0623H87.2048V57.7058H94.1427C98.0464 57.7058 111.054 56.3017 111.27 67.7733C111.488 79.2448 94.1427 78.7759 94.1427 78.7759H87.2048V77.8918H87.2022V58.0623ZM87.2022 90.7542H95.143C96.7561 90.7542 102.304 91.0196 104.324 91.1189C105.148 91.1509 105.963 91.308 106.746 91.5851C107.031 91.6894 107.302 91.8072 107.595 91.9385C108.819 92.3659 109.973 92.9968 111.017 93.8092C111.697 94.2943 112.295 94.9014 112.786 95.6045C112.998 95.9218 113.194 96.2517 113.372 96.5933C113.841 97.4517 114.19 98.381 114.406 99.3504C114.643 100.287 114.766 101.253 114.771 102.224C114.771 104.311 114.414 106.039 113.533 107.502C112.339 109.662 110.381 111.192 108.178 112.272C102.481 115.07 95.143 114.871 95.143 114.871H87.2022V90.7542Z" fill="#C87D0C"/>
<g opacity="0.85">
<g opacity="0.25">
<path d="M162.777 120.564L92.9734 135.871L105.654 193.18L175.457 177.873L162.777 120.564Z" fill="url(#paint1_linear)"/>
<path d="M105.989 121.716C104.844 116.541 105.806 111.127 108.662 106.664C111.518 102.202 116.035 99.0558 121.22 97.919C126.404 96.7821 131.831 97.7474 136.306 100.602C140.781 103.457 143.939 107.968 145.084 113.143L147.846 125.628L153.318 124.428L150.556 111.943C149.865 108.629 148.522 105.484 146.605 102.69C144.687 99.897 142.234 97.5105 139.386 95.6694C136.539 93.8283 133.354 92.5691 130.016 91.9649C126.678 91.3608 123.255 91.4236 119.943 92.1498C116.631 92.876 113.498 94.2511 110.724 96.1954C107.951 98.1397 105.592 100.615 103.785 103.476C101.978 106.338 100.759 109.53 100.198 112.867C99.6368 116.204 99.7454 119.619 100.517 122.916L103.28 135.4L108.752 134.201L105.989 121.716Z" fill="url(#paint2_linear)"/>
<path d="M106.713 121.294C105.614 116.326 106.537 111.129 109.279 106.845C112.021 102.561 116.357 99.5406 121.334 98.4493C126.311 97.3579 131.52 98.2846 135.817 101.025C140.113 103.766 143.144 108.096 144.243 113.064L146.895 125.05L152.15 123.898L149.497 111.911C148.091 105.553 144.211 100.01 138.712 96.5023C133.212 92.9942 126.544 91.8082 120.174 93.2051C113.804 94.602 108.253 98.4675 104.743 103.951C101.234 109.435 100.052 116.088 101.459 122.446L104.111 134.432L109.366 133.28L106.713 121.294Z" fill="white"/>
<path d="M160.593 121.232L95.2928 135.552L107.062 188.741L172.362 174.422L160.593 121.232Z" fill="#B868D9"/>
<path d="M160.593 121.232L95.2928 135.552L107.062 188.741L172.362 174.422L160.593 121.232Z" fill="white"/>
<path d="M162.931 131.635L97.6213 145.957L104.75 178.178L170.06 163.855L162.931 131.635Z" fill="#B868D9"/>
<path d="M137.273 147.856C137.103 147.073 136.744 146.344 136.227 145.732C135.71 145.12 135.05 144.643 134.305 144.345C133.561 144.046 132.755 143.934 131.957 144.019C131.16 144.104 130.396 144.382 129.732 144.83C129.068 145.279 128.524 145.883 128.149 146.59C127.774 147.297 127.578 148.085 127.58 148.886C127.581 149.686 127.779 150.474 128.156 151.181C128.534 151.887 129.079 152.491 129.744 152.939L131.999 163.131C132.203 164.053 132.765 164.856 133.562 165.365C134.359 165.873 135.326 166.045 136.249 165.843C137.172 165.64 137.976 165.08 138.485 164.285C138.994 163.49 139.165 162.526 138.961 161.605L136.706 151.412C137.343 150.343 137.546 149.07 137.273 147.856Z" fill="url(#paint3_linear)"/>
<path opacity="0.2" d="M136.794 148.84C136.646 148.167 136.336 147.54 135.889 147.014C135.443 146.489 134.875 146.08 134.234 145.823C133.594 145.567 132.9 145.471 132.214 145.544C131.528 145.617 130.87 145.856 130.298 146.242C129.727 146.627 129.259 147.146 128.935 147.754C128.611 148.362 128.441 149.039 128.44 149.728C128.439 150.417 128.608 151.095 128.93 151.705C129.253 152.314 129.72 152.835 130.29 153.223L132.235 162.011C132.41 162.806 132.895 163.498 133.582 163.937C134.269 164.375 135.102 164.523 135.898 164.349C136.694 164.174 137.387 163.691 137.826 163.006C138.264 162.321 138.412 161.489 138.236 160.695L136.292 151.906C136.844 150.986 137.024 149.889 136.794 148.84Z" fill="black"/>
</g>
<path d="M159.293 122.714L89.4891 138.021L102.17 195.33L171.973 180.023L159.293 122.714Z" fill="url(#paint4_linear)"/>
<path d="M102.504 123.865C101.359 118.691 102.32 113.277 105.177 108.814C108.033 104.351 112.55 101.205 117.734 100.068C122.919 98.9315 128.345 99.8967 132.821 102.752C137.296 105.607 140.454 110.118 141.599 115.292L144.361 127.777L149.833 126.577L147.07 114.092C146.38 110.778 145.037 107.633 143.119 104.84C141.202 102.046 138.748 99.6599 135.901 97.8187C133.053 95.9776 129.868 94.7185 126.531 94.1143C123.193 93.5101 119.769 93.573 116.458 94.2992C113.146 95.0254 110.013 96.4005 107.239 98.3448C104.465 100.289 102.107 102.764 100.3 105.626C98.4927 108.488 97.2734 111.679 96.7125 115.016C96.1516 118.353 96.2602 121.769 97.032 125.065L99.7945 137.55L105.266 136.35L102.504 123.865Z" fill="url(#paint5_linear)"/>
<path d="M157.108 123.382L91.8074 137.701L103.576 190.891L168.877 176.571L157.108 123.382Z" fill="#B868D9"/>
<path d="M157.108 123.382L91.8074 137.701L103.576 190.891L168.877 176.571L157.108 123.382Z" fill="white"/>
<path d="M159.446 133.785L94.136 148.108L101.265 180.329L166.574 166.006L159.446 133.785Z" fill="url(#paint6_linear)"/>
<path d="M133.787 150.005C133.618 149.222 133.259 148.493 132.742 147.881C132.224 147.269 131.564 146.792 130.82 146.494C130.076 146.195 129.269 146.083 128.472 146.168C127.675 146.253 126.91 146.531 126.246 146.979C125.582 147.428 125.039 148.032 124.664 148.739C124.289 149.446 124.093 150.234 124.094 151.035C124.095 151.835 124.293 152.623 124.671 153.33C125.048 154.036 125.594 154.64 126.259 155.088L128.514 165.28C128.718 166.202 129.28 167.005 130.077 167.514C130.874 168.022 131.84 168.194 132.764 167.992C133.687 167.789 134.491 167.229 135 166.434C135.508 165.639 135.68 164.675 135.476 163.754L133.221 153.561C133.858 152.492 134.061 151.219 133.787 150.005Z" fill="url(#paint7_linear)"/>
<path opacity="0.2" d="M133.308 150.99C133.161 150.317 132.85 149.691 132.404 149.165C131.958 148.639 131.39 148.23 130.749 147.974C130.108 147.717 129.415 147.621 128.729 147.694C128.042 147.767 127.385 148.007 126.813 148.392C126.242 148.777 125.773 149.296 125.45 149.904C125.126 150.512 124.956 151.19 124.955 151.879C124.954 152.567 125.122 153.246 125.445 153.855C125.767 154.464 126.234 154.985 126.805 155.373L128.749 164.162C128.925 164.956 129.41 165.649 130.097 166.087C130.784 166.526 131.617 166.674 132.413 166.499C133.209 166.325 133.902 165.842 134.341 165.156C134.779 164.471 134.927 163.64 134.751 162.845L132.807 154.057C133.359 153.136 133.539 152.039 133.308 150.99Z" fill="black"/>
<path d="M103.219 123.447C102.123 118.483 103.049 113.287 105.794 109.003C108.539 104.72 112.878 101.699 117.857 100.605C122.835 99.512 128.046 100.435 132.341 103.173C136.637 105.91 139.667 110.237 140.763 115.201L143.409 127.181L148.666 126.027L146.019 114.047C144.616 107.692 140.738 102.154 135.239 98.6503C129.741 95.1467 123.072 93.9646 116.699 95.3642C110.326 96.7638 104.772 100.63 101.258 106.114C97.7447 111.597 96.5593 118.247 97.9629 124.601L100.609 136.581L105.865 135.427L103.219 123.447Z" fill="white"/>
<path d="M111.5 94L108.5 92L131.923 90.0044L133.949 93.7864C135.053 98.9482 135.326 101.841 134.5 107L114.753 103.819V100.037C114.211 97.5463 113.457 96.2316 111.5 94Z" fill="#C87D0C"/>
</g>
<defs>
<linearGradient id="paint0_linear" x1="202.484" y1="26.1461" x2="45.7481" y2="158.278" gradientUnits="userSpaceOnUse">
<stop stop-color="#9A1FCB" stop-opacity="0.72"/>
<stop offset="1" stop-color="#DA97F5" stop-opacity="0"/>
</linearGradient>
<linearGradient id="paint1_linear" x1="38560" y1="22795.9" x2="36636.4" y2="14024" gradientUnits="userSpaceOnUse">
<stop stop-color="#808080" stop-opacity="0.25"/>
<stop offset="0.54" stop-color="#808080" stop-opacity="0.12"/>
<stop offset="1" stop-color="#808080" stop-opacity="0.1"/>
</linearGradient>
<linearGradient id="paint2_linear" x1="35401.1" y1="14717.2" x2="34572.7" y2="10939.2" gradientUnits="userSpaceOnUse">
<stop stop-color="#808080" stop-opacity="0.25"/>
<stop offset="0.54" stop-color="#808080" stop-opacity="0.12"/>
<stop offset="1" stop-color="#808080" stop-opacity="0.1"/>
</linearGradient>
<linearGradient id="paint3_linear" x1="9155.7" y1="13226.9" x2="8879.03" y2="11965.5" gradientUnits="userSpaceOnUse">
<stop stop-color="#808080" stop-opacity="0.25"/>
<stop offset="0.54" stop-color="#808080" stop-opacity="0.12"/>
<stop offset="1" stop-color="#808080" stop-opacity="0.1"/>
</linearGradient>
<linearGradient id="paint4_linear" x1="38556.5" y1="22798.1" x2="36633" y2="14026.1" gradientUnits="userSpaceOnUse">
<stop stop-color="#808080" stop-opacity="0.25"/>
<stop offset="0.54" stop-color="#808080" stop-opacity="0.12"/>
<stop offset="1" stop-color="#808080" stop-opacity="0.1"/>
</linearGradient>
<linearGradient id="paint5_linear" x1="35397.6" y1="14719.3" x2="34569.2" y2="10941.3" gradientUnits="userSpaceOnUse">
<stop stop-color="#808080" stop-opacity="0.25"/>
<stop offset="0.54" stop-color="#808080" stop-opacity="0.12"/>
<stop offset="1" stop-color="#808080" stop-opacity="0.1"/>
</linearGradient>
<linearGradient id="paint6_linear" x1="126.791" y1="140.946" x2="133.86" y2="173.18" gradientUnits="userSpaceOnUse">
<stop stop-color="#B868D9"/>
<stop offset="1" stop-color="#9A00B4" stop-opacity="0.63"/>
</linearGradient>
<linearGradient id="paint7_linear" x1="9152.22" y1="13229.1" x2="8875.55" y2="11967.6" gradientUnits="userSpaceOnUse">
<stop stop-color="#808080" stop-opacity="0.25"/>
<stop offset="0.54" stop-color="#808080" stop-opacity="0.12"/>
<stop offset="1" stop-color="#808080" stop-opacity="0.1"/>
</linearGradient>
</defs>
</svg>
