<svg width="135" height="20" viewBox="0 0 135 20" fill="none" xmlns="http://www.w3.org/2000/svg">
<path d="M6.264 16.96C7.16 16.96 7.84 16.912 8.304 16.816V13.6C8.144 13.552 7.912 13.504 7.608 13.456C7.304 13.408 6.968 13.384 6.6 13.384C6.28 13.384 5.952 13.408 5.616 13.456C5.296 13.504 5 13.592 4.728 13.72C4.472 13.848 4.264 14.032 4.104 14.272C3.944 14.496 3.864 14.784 3.864 15.136C3.864 15.824 4.08 16.304 4.512 16.576C4.944 16.832 5.528 16.96 6.264 16.96ZM6.024 6.136C6.984 6.136 7.792 6.256 8.448 6.496C9.104 6.736 9.624 7.072 10.008 7.504C10.408 7.936 10.688 8.464 10.848 9.088C11.024 9.696 11.112 10.368 11.112 11.104V18.712C10.664 18.808 9.984 18.92 9.072 19.048C8.176 19.192 7.16 19.264 6.024 19.264C5.272 19.264 4.584 19.192 3.96 19.048C3.336 18.904 2.8 18.672 2.352 18.352C1.92 18.032 1.576 17.616 1.32 17.104C1.08 16.592 0.96 15.96 0.96 15.208C0.96 14.488 1.096 13.88 1.368 13.384C1.656 12.888 2.04 12.488 2.52 12.184C3 11.864 3.552 11.64 4.176 11.512C4.816 11.368 5.48 11.296 6.168 11.296C6.488 11.296 6.824 11.32 7.176 11.368C7.528 11.4 7.904 11.464 8.304 11.56V11.08C8.304 10.744 8.264 10.424 8.184 10.12C8.104 9.816 7.96 9.552 7.752 9.328C7.56 9.088 7.296 8.904 6.96 8.776C6.64 8.648 6.232 8.584 5.736 8.584C5.064 8.584 4.448 8.632 3.888 8.728C3.328 8.824 2.872 8.936 2.52 9.064L2.16 6.712C2.528 6.584 3.064 6.456 3.768 6.328C4.472 6.2 5.224 6.136 6.024 6.136ZM14.5243 3.136L17.4283 2.656V6.448H21.8923V8.872H17.4283V13.984C17.4283 14.992 17.5883 15.712 17.9083 16.144C18.2283 16.576 18.7723 16.792 19.5403 16.792C20.0683 16.792 20.5323 16.736 20.9323 16.624C21.3483 16.512 21.6763 16.408 21.9163 16.312L22.3963 18.616C22.0603 18.76 21.6203 18.904 21.0763 19.048C20.5323 19.208 19.8923 19.288 19.1563 19.288C18.2603 19.288 17.5083 19.168 16.9003 18.928C16.3083 18.688 15.8363 18.344 15.4843 17.896C15.1323 17.432 14.8843 16.88 14.7403 16.24C14.5963 15.584 14.5243 14.84 14.5243 14.008V3.136ZM35.7703 12.712C35.7703 13.704 35.6263 14.608 35.3383 15.424C35.0503 16.24 34.6423 16.936 34.1143 17.512C33.5863 18.088 32.9463 18.536 32.1943 18.856C31.4583 19.176 30.6423 19.336 29.7463 19.336C28.8503 19.336 28.0343 19.176 27.2983 18.856C26.5623 18.536 25.9303 18.088 25.4023 17.512C24.8743 16.936 24.4583 16.24 24.1543 15.424C23.8663 14.608 23.7223 13.704 23.7223 12.712C23.7223 11.72 23.8663 10.824 24.1543 10.024C24.4583 9.208 24.8743 8.512 25.4023 7.936C25.9463 7.36 26.5863 6.92 27.3223 6.616C28.0583 6.296 28.8663 6.136 29.7463 6.136C30.6263 6.136 31.4343 6.296 32.1703 6.616C32.9223 6.92 33.5623 7.36 34.0903 7.936C34.6183 8.512 35.0263 9.208 35.3143 10.024C35.6183 10.824 35.7703 11.72 35.7703 12.712ZM32.7943 12.712C32.7943 11.464 32.5223 10.48 31.9783 9.76C31.4503 9.024 30.7063 8.656 29.7463 8.656C28.7863 8.656 28.0343 9.024 27.4903 9.76C26.9623 10.48 26.6983 11.464 26.6983 12.712C26.6983 13.976 26.9623 14.976 27.4903 15.712C28.0343 16.448 28.7863 16.816 29.7463 16.816C30.7063 16.816 31.4503 16.448 31.9783 15.712C32.5223 14.976 32.7943 13.976 32.7943 12.712ZM45.9141 12.4C45.9141 11.088 45.7461 10.144 45.4101 9.568C45.0901 8.976 44.4821 8.68 43.5861 8.68C43.2661 8.68 42.9141 8.704 42.5301 8.752C42.1461 8.8 41.8581 8.84 41.6661 8.872V19H38.7621V6.856C39.3221 6.696 40.0501 6.544 40.9461 6.4C41.8581 6.256 42.8181 6.184 43.8261 6.184C44.6901 6.184 45.3941 6.296 45.9381 6.52C46.4981 6.744 46.9621 7.04 47.3301 7.408C47.5061 7.28 47.7301 7.144 48.0021 7C48.2741 6.856 48.5781 6.728 48.9141 6.616C49.2501 6.488 49.6021 6.384 49.9701 6.304C50.3541 6.224 50.7381 6.184 51.1221 6.184C52.0981 6.184 52.8981 6.328 53.5221 6.616C54.1621 6.888 54.6581 7.28 55.0101 7.792C55.3781 8.288 55.6261 8.896 55.7541 9.616C55.8981 10.32 55.9701 11.096 55.9701 11.944V19H53.0661V12.4C53.0661 11.088 52.9061 10.144 52.5861 9.568C52.2661 8.976 51.6501 8.68 50.7381 8.68C50.2741 8.68 49.8341 8.76 49.4181 8.92C49.0021 9.064 48.6901 9.208 48.4821 9.352C48.6101 9.752 48.6981 10.176 48.7461 10.624C48.7941 11.072 48.8181 11.552 48.8181 12.064V19H45.9141V12.4ZM62.4557 19H59.5517V6.448H62.4557V19ZM62.7677 2.776C62.7677 3.32 62.5917 3.752 62.2397 4.072C61.8877 4.392 61.4717 4.552 60.9917 4.552C60.4957 4.552 60.0717 4.392 59.7197 4.072C59.3677 3.752 59.1917 3.32 59.1917 2.776C59.1917 2.216 59.3677 1.776 59.7197 1.456C60.0717 1.136 60.4957 0.975999 60.9917 0.975999C61.4717 0.975999 61.8877 1.136 62.2397 1.456C62.5917 1.776 62.7677 2.216 62.7677 2.776ZM65.4645 12.736C65.4645 11.808 65.6085 10.944 65.8965 10.144C66.1845 9.328 66.5925 8.624 67.1205 8.032C67.6645 7.44 68.3205 6.976 69.0885 6.64C69.8565 6.304 70.7205 6.136 71.6805 6.136C72.8645 6.136 73.9845 6.352 75.0405 6.784L74.4165 9.16C74.0805 9.016 73.6965 8.896 73.2645 8.8C72.8485 8.704 72.4005 8.656 71.9205 8.656C70.7845 8.656 69.9205 9.016 69.3285 9.736C68.7365 10.44 68.4405 11.44 68.4405 12.736C68.4405 13.984 68.7205 14.976 69.2805 15.712C69.8405 16.432 70.7845 16.792 72.1125 16.792C72.6085 16.792 73.0965 16.744 73.5765 16.648C74.0565 16.552 74.4725 16.432 74.8245 16.288L75.2325 18.688C74.9125 18.848 74.4245 18.992 73.7685 19.12C73.1285 19.248 72.4645 19.312 71.7765 19.312C70.7045 19.312 69.7685 19.152 68.9685 18.832C68.1845 18.496 67.5285 18.04 67.0005 17.464C66.4885 16.872 66.1045 16.176 65.8485 15.376C65.5925 14.56 65.4645 13.68 65.4645 12.736Z" fill="white"/>
<path d="M81.8488 19.24C80.9848 19.224 80.2648 19.128 79.6888 18.952C79.1288 18.776 78.6808 18.528 78.3448 18.208C78.0088 17.872 77.7688 17.464 77.6248 16.984C77.4968 16.488 77.4328 15.928 77.4328 15.304V0.855999L80.3368 0.375999V14.752C80.3368 15.104 80.3608 15.4 80.4088 15.64C80.4728 15.88 80.5768 16.088 80.7208 16.264C80.8648 16.424 81.0568 16.552 81.2968 16.648C81.5528 16.728 81.8728 16.792 82.2568 16.84L81.8488 19.24ZM95.9578 12.712C95.9578 13.704 95.8138 14.608 95.5258 15.424C95.2378 16.24 94.8298 16.936 94.3018 17.512C93.7738 18.088 93.1338 18.536 92.3818 18.856C91.6458 19.176 90.8298 19.336 89.9338 19.336C89.0378 19.336 88.2218 19.176 87.4858 18.856C86.7498 18.536 86.1178 18.088 85.5898 17.512C85.0618 16.936 84.6458 16.24 84.3418 15.424C84.0538 14.608 83.9098 13.704 83.9098 12.712C83.9098 11.72 84.0538 10.824 84.3418 10.024C84.6458 9.208 85.0618 8.512 85.5898 7.936C86.1338 7.36 86.7738 6.92 87.5098 6.616C88.2458 6.296 89.0538 6.136 89.9338 6.136C90.8138 6.136 91.6218 6.296 92.3578 6.616C93.1098 6.92 93.7498 7.36 94.2778 7.936C94.8058 8.512 95.2138 9.208 95.5018 10.024C95.8058 10.824 95.9578 11.72 95.9578 12.712ZM92.9818 12.712C92.9818 11.464 92.7098 10.48 92.1658 9.76C91.6378 9.024 90.8938 8.656 89.9338 8.656C88.9738 8.656 88.2218 9.024 87.6778 9.76C87.1498 10.48 86.8858 11.464 86.8858 12.712C86.8858 13.976 87.1498 14.976 87.6778 15.712C88.2218 16.448 88.9738 16.816 89.9338 16.816C90.8938 16.816 91.6378 16.448 92.1658 15.712C92.7098 14.976 92.9818 13.976 92.9818 12.712ZM103.366 16.96C104.262 16.96 104.942 16.912 105.406 16.816V13.6C105.246 13.552 105.014 13.504 104.71 13.456C104.406 13.408 104.07 13.384 103.702 13.384C103.382 13.384 103.054 13.408 102.718 13.456C102.398 13.504 102.102 13.592 101.83 13.72C101.574 13.848 101.366 14.032 101.206 14.272C101.046 14.496 100.966 14.784 100.966 15.136C100.966 15.824 101.182 16.304 101.614 16.576C102.046 16.832 102.63 16.96 103.366 16.96ZM103.126 6.136C104.086 6.136 104.894 6.256 105.55 6.496C106.206 6.736 106.726 7.072 107.11 7.504C107.51 7.936 107.79 8.464 107.95 9.088C108.126 9.696 108.214 10.368 108.214 11.104V18.712C107.766 18.808 107.086 18.92 106.174 19.048C105.278 19.192 104.262 19.264 103.126 19.264C102.374 19.264 101.686 19.192 101.062 19.048C100.438 18.904 99.9016 18.672 99.4536 18.352C99.0216 18.032 98.6776 17.616 98.4216 17.104C98.1816 16.592 98.0616 15.96 98.0616 15.208C98.0616 14.488 98.1976 13.88 98.4696 13.384C98.7576 12.888 99.1416 12.488 99.6216 12.184C100.102 11.864 100.654 11.64 101.278 11.512C101.918 11.368 102.582 11.296 103.27 11.296C103.59 11.296 103.926 11.32 104.278 11.368C104.63 11.4 105.006 11.464 105.406 11.56V11.08C105.406 10.744 105.366 10.424 105.286 10.12C105.206 9.816 105.062 9.552 104.854 9.328C104.662 9.088 104.398 8.904 104.062 8.776C103.742 8.648 103.334 8.584 102.838 8.584C102.166 8.584 101.55 8.632 100.99 8.728C100.43 8.824 99.9736 8.936 99.6216 9.064L99.2616 6.712C99.6296 6.584 100.166 6.456 100.87 6.328C101.574 6.2 102.326 6.136 103.126 6.136ZM111.77 6.856C112.33 6.696 113.058 6.544 113.954 6.4C114.85 6.256 115.842 6.184 116.93 6.184C117.954 6.184 118.81 6.328 119.498 6.616C120.186 6.888 120.73 7.28 121.13 7.792C121.546 8.288 121.834 8.896 121.994 9.616C122.17 10.32 122.258 11.096 122.258 11.944V19H119.354V12.4C119.354 11.728 119.306 11.16 119.21 10.696C119.13 10.216 118.986 9.832 118.778 9.544C118.586 9.24 118.314 9.024 117.962 8.896C117.626 8.752 117.21 8.68 116.714 8.68C116.346 8.68 115.962 8.704 115.562 8.752C115.162 8.8 114.866 8.84 114.674 8.872V19H111.77V6.856ZM128.953 16.912C129.721 16.912 130.281 16.824 130.633 16.648C130.985 16.456 131.161 16.136 131.161 15.688C131.161 15.272 130.969 14.928 130.585 14.656C130.217 14.384 129.601 14.088 128.737 13.768C128.209 13.576 127.721 13.376 127.273 13.168C126.841 12.944 126.465 12.688 126.145 12.4C125.825 12.112 125.569 11.768 125.377 11.368C125.201 10.952 125.113 10.448 125.113 9.856C125.113 8.704 125.537 7.8 126.385 7.144C127.233 6.472 128.385 6.136 129.841 6.136C130.577 6.136 131.281 6.208 131.953 6.352C132.625 6.48 133.129 6.608 133.465 6.736L132.937 9.088C132.617 8.944 132.209 8.816 131.713 8.704C131.217 8.576 130.641 8.512 129.985 8.512C129.393 8.512 128.913 8.616 128.545 8.824C128.177 9.016 127.993 9.32 127.993 9.736C127.993 9.944 128.025 10.128 128.089 10.288C128.169 10.448 128.297 10.6 128.473 10.744C128.649 10.872 128.881 11.008 129.169 11.152C129.457 11.28 129.809 11.416 130.225 11.56C130.913 11.816 131.497 12.072 131.977 12.328C132.457 12.568 132.849 12.848 133.153 13.168C133.473 13.472 133.705 13.824 133.849 14.224C133.993 14.624 134.065 15.104 134.065 15.664C134.065 16.864 133.617 17.776 132.721 18.4C131.841 19.008 130.577 19.312 128.929 19.312C127.825 19.312 126.937 19.216 126.265 19.024C125.593 18.848 125.121 18.704 124.849 18.592L125.353 16.168C125.785 16.344 126.297 16.512 126.889 16.672C127.497 16.832 128.185 16.912 128.953 16.912Z" fill="#B868D9"/>
</svg>
